<svg width="11" height="11" viewBox="0 0 11 11" fill="none" xmlns="http://www.w3.org/2000/svg"><g opacity=".6" fill-rule="evenodd" clip-rule="evenodd"><path d="M.568.545l9.863 9.695L.568.545z" fill="#75767A"/><path d="M10.43 10.8a.574.574 0 0 1-.402-.165L.166.941A.553.553 0 0 1 .18.164.576.576 0 0 1 .97.15l9.863 9.695c.162.16.21.4.123.61a.57.57 0 0 1-.525.345z" fill="#000"/><path d="M.568 10.24L10.431.545.568 10.24z" fill="#75767A"/><path d="M.568 10.8a.57.57 0 0 1-.525-.346.552.552 0 0 1 .123-.609L10.028.15a.576.576 0 0 1 .79.014.553.553 0 0 1 .015.777L.97 10.635a.574.574 0 0 1-.403.165z" fill="#000"/></g></svg>