<svg width="11" height="11" viewBox="0 0 11 11" fill="none" xmlns="http://www.w3.org/2000/svg">
<g opacity="0.6">
<path fill-rule="evenodd" clip-rule="evenodd" d="M0.568481 0.54541L10.4306 10.2403L0.568481 0.54541Z" fill="#75767A"/>
<path fill-rule="evenodd" clip-rule="evenodd" d="M10.4305 10.7996C10.2797 10.7995 10.135 10.7405 10.0284 10.6355L0.166376 0.940625C-0.0425165 0.720245 -0.0363527 0.376821 0.180319 0.163822C0.39699 -0.0491767 0.746335 -0.055236 0.970514 0.150116L10.8326 9.84503C10.9951 10.005 11.0437 10.2454 10.9557 10.4543C10.8677 10.6631 10.6605 10.7994 10.4305 10.7996Z" fill="black"/>
<path fill-rule="evenodd" clip-rule="evenodd" d="M0.568481 10.2403L10.4306 0.54541L0.568481 10.2403Z" fill="#75767A"/>
<path fill-rule="evenodd" clip-rule="evenodd" d="M0.568482 10.7996C0.338512 10.7994 0.131277 10.6631 0.0432984 10.4543C-0.0446798 10.2454 0.00390071 10.005 0.166413 9.84503L10.0285 0.150116C10.2527 -0.055236 10.602 -0.0491767 10.8187 0.163822C11.0353 0.376821 11.0415 0.720245 10.8326 0.940625L0.970551 10.6355C0.863951 10.7405 0.71933 10.7995 0.568482 10.7996Z" fill="black"/>
</g>
</svg>
